<svg width="196" height="250" viewBox="0 0 196 250" fill="none" xmlns="http://www.w3.org/2000/svg">
<g opacity="0.8">
<g filter="url(#filter0_ii_231_7)">
<path d="M19.8446 75.0685C40.3119 97.5968 94.5665 129.327 85.145 160.422C75.7236 191.518 47.7841 187.393 16.271 192.787L0.676758 166.768C31.865 162.961 48.1089 163.595 53.9567 156.932C59.8045 150.269 49.4085 141.384 49.4085 141.384C49.4085 141.384 16.5958 110.923 5.22512 99.5006L19.8446 75.0685Z" fill="url(#paint0_linear_231_7)"/>
</g>
<path d="M19.8446 75.0685C40.3119 97.5968 94.5665 129.327 85.145 160.422C75.7236 191.518 47.7841 187.393 16.271 192.787L0.676758 166.768C31.865 162.961 48.1089 163.595 53.9567 156.932C59.8045 150.269 49.4085 141.384 49.4085 141.384C49.4085 141.384 16.5958 110.923 5.22512 99.5006L19.8446 75.0685Z" stroke="#252528" stroke-opacity="0.6" stroke-width="0.821178"/>
<g filter="url(#filter1_i_231_7)">
<path d="M98.1402 8.43543C90.0589 37.5013 50.7078 85.8568 75.3985 110.289C100.089 134.721 122.95 118.081 153.634 109.232L155.762 79.1556C126.091 89.2845 111.829 96.9049 103.558 93.4748C95.287 90.0446 100.556 77.5729 100.556 77.5729C100.556 77.5729 116.086 36.0417 121.073 20.873L98.1402 8.43543Z" fill="url(#paint1_linear_231_7)"/>
</g>
<g filter="url(#filter2_i_231_7)">
<path d="M77.3492 233.084C85.4528 204.024 90.9941 142.971 117.634 134.721C144.274 126.471 162.365 142.057 184.234 164.864L167.015 199.45C146.683 176.04 141.444 161.277 132.533 160.144C123.623 159.01 121.699 172.37 121.699 172.37C121.699 172.37 113.554 215.863 109.989 231.409L77.3492 233.084Z" fill="url(#paint2_linear_231_7)"/>
</g>
<path d="M77.3492 233.084C85.4528 204.024 90.9941 142.971 117.634 134.721C144.274 126.471 162.365 142.057 184.234 164.864L167.015 199.45C146.683 176.04 141.444 161.277 132.533 160.144C123.623 159.01 121.699 172.37 121.699 172.37C121.699 172.37 113.554 215.863 109.989 231.409L77.3492 233.084Z" stroke="url(#paint3_linear_231_7)" stroke-width="0.821178"/>
<g opacity="0.3" filter="url(#filter3_f_231_7)">
<ellipse cx="0.649755" cy="0.634601" rx="0.649755" ry="0.634601" transform="matrix(1 0 0 -1 125.431 95.8248)" fill="#D9D9D9"/>
</g>
<g opacity="0.2" filter="url(#filter4_f_231_7)">
<ellipse cx="0.649755" cy="0.634601" rx="0.649755" ry="0.634601" transform="matrix(1 0 0 -1 90.9932 102.805)" fill="#D9D9D9"/>
</g>
<g opacity="0.2" filter="url(#filter5_f_231_7)">
<ellipse cx="0.649755" cy="0.634601" rx="0.649755" ry="0.634601" transform="matrix(1 0 0 -1 98.791 116.132)" fill="#D9D9D9"/>
</g>
<g opacity="0.2" filter="url(#filter6_f_231_7)">
<ellipse cx="0.649755" cy="0.634601" rx="0.649755" ry="0.634601" transform="matrix(1 0 0 -1 74.749 107.882)" fill="#D9D9D9"/>
</g>
<g opacity="0.2" filter="url(#filter7_f_231_7)">
<ellipse cx="0.974633" cy="0.951902" rx="0.974633" ry="0.951902" transform="matrix(1 0 0 -1 18.2197 98.3632)" fill="#D9D9D9"/>
</g>
<g opacity="0.25" filter="url(#filter8_f_231_7)">
<ellipse cx="0.974633" cy="0.951902" rx="0.974633" ry="0.951902" transform="matrix(1 0 0 -1 42.9111 76.152)" fill="#D9D9D9"/>
</g>
<g opacity="0.35" filter="url(#filter9_f_231_7)">
<ellipse cx="1.29951" cy="1.2692" rx="1.29951" ry="1.2692" transform="matrix(1 0 0 -1 39.6631 111.69)" fill="#D9D9D9"/>
</g>
<g opacity="0.3" filter="url(#filter10_f_231_7)">
<ellipse cx="0.974633" cy="0.951902" rx="0.974633" ry="0.951902" transform="matrix(1 0 0 -1 29.916 135.805)" fill="#D9D9D9"/>
</g>
<g opacity="0.2" filter="url(#filter11_f_231_7)">
<ellipse cx="0.649755" cy="0.634601" rx="0.649755" ry="0.634601" transform="matrix(1 0 0 -1 67.6016 127.555)" fill="#D9D9D9"/>
</g>
<g opacity="0.8" filter="url(#filter12_f_231_7)">
<ellipse cx="0.649755" cy="0.634601" rx="0.649755" ry="0.634601" transform="matrix(1 0 0 -1 66.3027 99.6324)" fill="#D9D9D9"/>
</g>
<g opacity="0.2" filter="url(#filter13_f_231_7)">
<ellipse cx="0.649755" cy="0.634601" rx="0.649755" ry="0.634601" transform="matrix(1 0 0 -1 61.1045 109.786)" fill="#D9D9D9"/>
</g>
<g opacity="0.3" filter="url(#filter14_f_231_7)">
<ellipse cx="0.974633" cy="0.951902" rx="0.974633" ry="0.951902" transform="matrix(1 0 0 -1 80.5967 64.0946)" fill="#D9D9D9"/>
</g>
<g opacity="0.7" filter="url(#filter15_df_231_7)">
<path d="M104.313 131.363L104.146 130.92C103.926 130.34 103.816 130.05 103.599 129.839C103.383 129.627 103.086 129.52 102.492 129.305L102.039 129.141L102.492 128.978C103.086 128.763 103.383 128.656 103.599 128.444C103.816 128.233 103.926 127.943 104.146 127.363L104.313 126.92L104.481 127.363C104.701 127.943 104.81 128.233 105.027 128.444C105.244 128.656 105.541 128.763 106.134 128.978L106.587 129.141L106.134 129.305C105.541 129.52 105.244 129.627 105.027 129.839C104.81 130.05 104.701 130.34 104.481 130.92L104.313 131.363Z" fill="#DDDAEA"/>
<path d="M104.313 130.231C104.432 129.953 104.553 129.728 104.74 129.545C104.92 129.37 105.14 129.254 105.409 129.142C105.14 129.03 104.92 128.913 104.74 128.738C104.554 128.555 104.432 128.331 104.313 128.054C104.195 128.331 104.073 128.555 103.887 128.738C103.707 128.913 103.486 129.03 103.216 129.142C103.486 129.254 103.707 129.369 103.887 129.545L103.886 129.546C104.073 129.729 104.195 129.953 104.313 130.231Z" stroke="#D3D1DE" stroke-width="0.821178" stroke-linejoin="round"/>
</g>
<g opacity="0.35" filter="url(#filter16_df_231_7)">
<path d="M116.983 60.9216L116.84 60.5425C116.651 60.0453 116.557 59.7967 116.372 59.6154C116.186 59.4341 115.931 59.3421 115.422 59.1581L115.034 59.0178L115.422 58.8775C115.931 58.6936 116.186 58.6016 116.372 58.4202C116.557 58.2389 116.651 57.9903 116.84 57.4932L116.983 57.114L117.127 57.4932C117.315 57.9903 117.41 58.2389 117.595 58.4202C117.781 58.6016 118.035 58.6936 118.544 58.8775L118.933 59.0178L118.544 59.1581C118.035 59.3421 117.781 59.4341 117.595 59.6154C117.41 59.7967 117.315 60.0453 117.127 60.5425L116.983 60.9216Z" fill="#DDDAEA"/>
<path d="M116.983 59.8035C117.072 59.6164 117.171 59.4565 117.309 59.322C117.439 59.1948 117.592 59.1012 117.771 59.0183C117.592 58.9354 117.439 58.8409 117.309 58.7136C117.171 58.5794 117.072 58.4198 116.983 58.2332C116.895 58.4198 116.796 58.5794 116.658 58.7136C116.528 58.8411 116.374 58.9353 116.195 59.0183C116.374 59.1013 116.528 59.1946 116.658 59.322C116.796 59.4565 116.895 59.6164 116.983 59.8035Z" stroke="#D3D1DE" stroke-width="0.821178" stroke-linejoin="round"/>
</g>
<g opacity="0.5" filter="url(#filter17_df_231_7)">
<path d="M106.262 76.7866L106.142 76.4707C105.985 76.0564 105.907 75.8492 105.752 75.6981C105.597 75.547 105.385 75.4703 104.961 75.317L104.638 75.2001L104.961 75.0832C105.385 74.9299 105.597 74.8532 105.752 74.7021C105.907 74.551 105.985 74.3439 106.142 73.9296L106.262 73.6136L106.382 73.9296C106.539 74.3439 106.617 74.551 106.772 74.7021C106.927 74.8532 107.139 74.9299 107.563 75.0832L107.886 75.2001L107.563 75.317C107.139 75.4703 106.927 75.547 106.772 75.6981C106.617 75.8492 106.539 76.0564 106.382 76.4707L106.262 76.7866Z" fill="#DDDAEA"/>
<path d="M106.262 75.7036C106.324 75.5923 106.395 75.4926 106.485 75.4048C106.569 75.3232 106.663 75.258 106.768 75.2007C106.663 75.1433 106.569 75.0773 106.485 74.9956C106.396 74.908 106.324 74.8087 106.262 74.6978C106.22 74.7723 106.174 74.8416 106.121 74.9058L106.039 74.9956C105.955 75.0775 105.861 75.1432 105.756 75.2007C105.824 75.2381 105.888 75.2781 105.947 75.3247L106.039 75.4048C106.129 75.4925 106.2 75.5925 106.262 75.7036Z" stroke="#D3D1DE" stroke-width="0.821178" stroke-linejoin="round"/>
</g>
<g filter="url(#filter18_df_231_7)">
<path d="M58.3977 70.2291L58.1183 69.4919C57.7521 68.5252 57.569 68.0419 57.2079 67.6892C56.8469 67.3367 56.352 67.1578 55.3622 66.8001L54.6074 66.5273L55.3622 66.2545C56.352 65.8968 56.8469 65.7179 57.2079 65.3653C57.569 65.0127 57.7521 64.5294 58.1183 63.5627L58.3977 62.8254L58.6769 63.5627C59.0432 64.5294 59.2264 65.0127 59.5874 65.3653C59.9484 65.7179 60.4433 65.8968 61.433 66.2545L62.1879 66.5273L61.433 66.8001C60.4433 67.1578 59.9484 67.3367 59.5874 67.6892C59.2264 68.0419 59.0432 68.5252 58.6769 69.4919L58.3977 70.2291Z" fill="#16302C"/>
<path d="M58.3975 69.0739C58.6927 68.2974 58.9045 67.7822 59.3008 67.3951C59.6907 67.0145 60.2063 66.8093 60.9834 66.527C60.2062 66.2446 59.6907 66.0396 59.3008 65.6588C58.9047 65.2719 58.6924 64.7578 58.3975 63.9821C58.1026 64.7576 57.891 65.272 57.4951 65.6588C57.1052 66.0396 56.589 66.2445 55.8115 66.527C56.5891 66.8094 57.1051 67.0143 57.4951 67.3951C57.8914 67.7822 58.1023 68.2975 58.3975 69.0739Z" stroke="#16302C" stroke-width="0.821178" stroke-linejoin="round"/>
</g>
</g>
<defs>
<filter id="filter0_ii_231_7" x="-0.821178" y="73.5616" width="91.5716" height="120.088" filterUnits="userSpaceOnUse" color-interpolation-filters="sRGB">
<feFlood flood-opacity="0" result="BackgroundImageFix"/>
<feBlend mode="normal" in="SourceGraphic" in2="BackgroundImageFix" result="shape"/>
<feColorMatrix in="SourceAlpha" type="matrix" values="0 0 0 0 0 0 0 0 0 0 0 0 0 0 0 0 0 0 127 0" result="hardAlpha"/>
<feOffset dx="7.39061" dy="-0.821178"/>
<feGaussianBlur stdDeviation="2.05295"/>
<feComposite in2="hardAlpha" operator="arithmetic" k2="-1" k3="1"/>
<feColorMatrix type="matrix" values="0 0 0 0 0.14902 0 0 0 0 0.054902 0 0 0 0 0.0352941 0 0 0 1 0"/>
<feBlend mode="normal" in2="shape" result="effect1_innerShadow_231_7"/>
<feColorMatrix in="SourceAlpha" type="matrix" values="0 0 0 0 0 0 0 0 0 0 0 0 0 0 0 0 0 0 127 0" result="hardAlpha"/>
<feOffset dx="-0.821178" dy="0.410589"/>
<feGaussianBlur stdDeviation="0.410589"/>
<feComposite in2="hardAlpha" operator="arithmetic" k2="-1" k3="1"/>
<feColorMatrix type="matrix" values="0 0 0 0 0.317647 0 0 0 0 0.25098 0 0 0 0 0.235294 0 0 0 1 0"/>
<feBlend mode="normal" in2="effect1_innerShadow_231_7" result="effect2_innerShadow_231_7"/>
</filter>
<filter id="filter1_i_231_7" x="67.3643" y="8.43542" width="92.5034" height="116.24" filterUnits="userSpaceOnUse" color-interpolation-filters="sRGB">
<feFlood flood-opacity="0" result="BackgroundImageFix"/>
<feBlend mode="normal" in="SourceGraphic" in2="BackgroundImageFix" result="shape"/>
<feColorMatrix in="SourceAlpha" type="matrix" values="0 0 0 0 0 0 0 0 0 0 0 0 0 0 0 0 0 0 127 0" result="hardAlpha"/>
<feOffset dx="5.74825" dy="1.64236"/>
<feGaussianBlur stdDeviation="2.05295"/>
<feComposite in2="hardAlpha" operator="arithmetic" k2="-1" k3="1"/>
<feColorMatrix type="matrix" values="0 0 0 0 0.0980392 0 0 0 0 0.0470588 0 0 0 0 0.0431373 0 0 0 0.8 0"/>
<feBlend mode="normal" in2="shape" result="effect1_innerShadow_231_7"/>
</filter>
<filter id="filter2_i_231_7" x="76.7969" y="132.078" width="112.041" height="103.084" filterUnits="userSpaceOnUse" color-interpolation-filters="sRGB">
<feFlood flood-opacity="0" result="BackgroundImageFix"/>
<feBlend mode="normal" in="SourceGraphic" in2="BackgroundImageFix" result="shape"/>
<feColorMatrix in="SourceAlpha" type="matrix" values="0 0 0 0 0 0 0 0 0 0 0 0 0 0 0 0 0 0 127 0" result="hardAlpha"/>
<feOffset dx="5.74825" dy="1.64236"/>
<feGaussianBlur stdDeviation="2.05295"/>
<feComposite in2="hardAlpha" operator="arithmetic" k2="-1" k3="1"/>
<feColorMatrix type="matrix" values="0 0 0 0 0.0980392 0 0 0 0 0.0470588 0 0 0 0 0.0431373 0 0 0 0.3 0"/>
<feBlend mode="normal" in2="shape" result="effect1_innerShadow_231_7"/>
</filter>
<filter id="filter3_f_231_7" x="123.788" y="92.9133" width="4.58452" height="4.55388" filterUnits="userSpaceOnUse" color-interpolation-filters="sRGB">
<feFlood flood-opacity="0" result="BackgroundImageFix"/>
<feBlend mode="normal" in="SourceGraphic" in2="BackgroundImageFix" result="shape"/>
<feGaussianBlur stdDeviation="0.821178" result="effect1_foregroundBlur_231_7"/>
</filter>
<filter id="filter4_f_231_7" x="89.3508" y="99.8935" width="4.58452" height="4.554" filterUnits="userSpaceOnUse" color-interpolation-filters="sRGB">
<feFlood flood-opacity="0" result="BackgroundImageFix"/>
<feBlend mode="normal" in="SourceGraphic" in2="BackgroundImageFix" result="shape"/>
<feGaussianBlur stdDeviation="0.821178" result="effect1_foregroundBlur_231_7"/>
</filter>
<filter id="filter5_f_231_7" x="97.1487" y="113.22" width="4.58452" height="4.55388" filterUnits="userSpaceOnUse" color-interpolation-filters="sRGB">
<feFlood flood-opacity="0" result="BackgroundImageFix"/>
<feBlend mode="normal" in="SourceGraphic" in2="BackgroundImageFix" result="shape"/>
<feGaussianBlur stdDeviation="0.821178" result="effect1_foregroundBlur_231_7"/>
</filter>
<filter id="filter6_f_231_7" x="73.1067" y="104.97" width="4.58452" height="4.55388" filterUnits="userSpaceOnUse" color-interpolation-filters="sRGB">
<feFlood flood-opacity="0" result="BackgroundImageFix"/>
<feBlend mode="normal" in="SourceGraphic" in2="BackgroundImageFix" result="shape"/>
<feGaussianBlur stdDeviation="0.821178" result="effect1_foregroundBlur_231_7"/>
</filter>
<filter id="filter7_f_231_7" x="16.5774" y="94.817" width="5.23393" height="5.18852" filterUnits="userSpaceOnUse" color-interpolation-filters="sRGB">
<feFlood flood-opacity="0" result="BackgroundImageFix"/>
<feBlend mode="normal" in="SourceGraphic" in2="BackgroundImageFix" result="shape"/>
<feGaussianBlur stdDeviation="0.821178" result="effect1_foregroundBlur_231_7"/>
</filter>
<filter id="filter8_f_231_7" x="41.2688" y="72.6058" width="5.23393" height="5.18852" filterUnits="userSpaceOnUse" color-interpolation-filters="sRGB">
<feFlood flood-opacity="0" result="BackgroundImageFix"/>
<feBlend mode="normal" in="SourceGraphic" in2="BackgroundImageFix" result="shape"/>
<feGaussianBlur stdDeviation="0.821178" result="effect1_foregroundBlur_231_7"/>
</filter>
<filter id="filter9_f_231_7" x="38.0207" y="107.509" width="5.88335" height="5.82317" filterUnits="userSpaceOnUse" color-interpolation-filters="sRGB">
<feFlood flood-opacity="0" result="BackgroundImageFix"/>
<feBlend mode="normal" in="SourceGraphic" in2="BackgroundImageFix" result="shape"/>
<feGaussianBlur stdDeviation="0.821178" result="effect1_foregroundBlur_231_7"/>
</filter>
<filter id="filter10_f_231_7" x="28.2737" y="132.258" width="5.23393" height="5.18852" filterUnits="userSpaceOnUse" color-interpolation-filters="sRGB">
<feFlood flood-opacity="0" result="BackgroundImageFix"/>
<feBlend mode="normal" in="SourceGraphic" in2="BackgroundImageFix" result="shape"/>
<feGaussianBlur stdDeviation="0.821178" result="effect1_foregroundBlur_231_7"/>
</filter>
<filter id="filter11_f_231_7" x="65.9592" y="124.643" width="4.58452" height="4.55388" filterUnits="userSpaceOnUse" color-interpolation-filters="sRGB">
<feFlood flood-opacity="0" result="BackgroundImageFix"/>
<feBlend mode="normal" in="SourceGraphic" in2="BackgroundImageFix" result="shape"/>
<feGaussianBlur stdDeviation="0.821178" result="effect1_foregroundBlur_231_7"/>
</filter>
<filter id="filter12_f_231_7" x="64.6604" y="96.7209" width="4.58452" height="4.55388" filterUnits="userSpaceOnUse" color-interpolation-filters="sRGB">
<feFlood flood-opacity="0" result="BackgroundImageFix"/>
<feBlend mode="normal" in="SourceGraphic" in2="BackgroundImageFix" result="shape"/>
<feGaussianBlur stdDeviation="0.821178" result="effect1_foregroundBlur_231_7"/>
</filter>
<filter id="filter13_f_231_7" x="59.4621" y="106.874" width="4.58452" height="4.55388" filterUnits="userSpaceOnUse" color-interpolation-filters="sRGB">
<feFlood flood-opacity="0" result="BackgroundImageFix"/>
<feBlend mode="normal" in="SourceGraphic" in2="BackgroundImageFix" result="shape"/>
<feGaussianBlur stdDeviation="0.821178" result="effect1_foregroundBlur_231_7"/>
</filter>
<filter id="filter14_f_231_7" x="78.9543" y="60.5484" width="5.23393" height="5.18852" filterUnits="userSpaceOnUse" color-interpolation-filters="sRGB">
<feFlood flood-opacity="0" result="BackgroundImageFix"/>
<feBlend mode="normal" in="SourceGraphic" in2="BackgroundImageFix" result="shape"/>
<feGaussianBlur stdDeviation="0.821178" result="effect1_foregroundBlur_231_7"/>
</filter>
<filter id="filter15_df_231_7" x="100.725" y="125.607" width="7.17562" height="7.06991" filterUnits="userSpaceOnUse" color-interpolation-filters="sRGB">
<feFlood flood-opacity="0" result="BackgroundImageFix"/>
<feColorMatrix in="SourceAlpha" type="matrix" values="0 0 0 0 0 0 0 0 0 0 0 0 0 0 0 0 0 0 127 0" result="hardAlpha"/>
<feOffset/>
<feGaussianBlur stdDeviation="0.656943"/>
<feComposite in2="hardAlpha" operator="out"/>
<feColorMatrix type="matrix" values="0 0 0 0 1 0 0 0 0 1 0 0 0 0 1 0 0 0 0.95 0"/>
<feBlend mode="normal" in2="BackgroundImageFix" result="effect1_dropShadow_231_7"/>
<feBlend mode="normal" in="SourceGraphic" in2="effect1_dropShadow_231_7" result="shape"/>
<feGaussianBlur stdDeviation="0.410589" result="effect2_foregroundBlur_231_7"/>
</filter>
<filter id="filter16_df_231_7" x="113.72" y="55.8001" width="6.52621" height="6.43539" filterUnits="userSpaceOnUse" color-interpolation-filters="sRGB">
<feFlood flood-opacity="0" result="BackgroundImageFix"/>
<feColorMatrix in="SourceAlpha" type="matrix" values="0 0 0 0 0 0 0 0 0 0 0 0 0 0 0 0 0 0 127 0" result="hardAlpha"/>
<feOffset/>
<feGaussianBlur stdDeviation="0.656943"/>
<feComposite in2="hardAlpha" operator="out"/>
<feColorMatrix type="matrix" values="0 0 0 0 1 0 0 0 0 1 0 0 0 0 1 0 0 0 0.95 0"/>
<feBlend mode="normal" in2="BackgroundImageFix" result="effect1_dropShadow_231_7"/>
<feBlend mode="normal" in="SourceGraphic" in2="effect1_dropShadow_231_7" result="shape"/>
<feGaussianBlur stdDeviation="0.615884" result="effect2_foregroundBlur_231_7"/>
</filter>
<filter id="filter17_df_231_7" x="103.324" y="72.2996" width="5.87679" height="5.80087" filterUnits="userSpaceOnUse" color-interpolation-filters="sRGB">
<feFlood flood-opacity="0" result="BackgroundImageFix"/>
<feColorMatrix in="SourceAlpha" type="matrix" values="0 0 0 0 0 0 0 0 0 0 0 0 0 0 0 0 0 0 127 0" result="hardAlpha"/>
<feOffset/>
<feGaussianBlur stdDeviation="0.656943"/>
<feComposite in2="hardAlpha" operator="out"/>
<feColorMatrix type="matrix" values="0 0 0 0 1 0 0 0 0 1 0 0 0 0 1 0 0 0 0.95 0"/>
<feBlend mode="normal" in2="BackgroundImageFix" result="effect1_dropShadow_231_7"/>
<feBlend mode="normal" in="SourceGraphic" in2="effect1_dropShadow_231_7" result="shape"/>
<feGaussianBlur stdDeviation="0.410589" result="effect2_foregroundBlur_231_7"/>
</filter>
<filter id="filter18_df_231_7" x="51.3227" y="59.5407" width="14.1495" height="13.9731" filterUnits="userSpaceOnUse" color-interpolation-filters="sRGB">
<feFlood flood-opacity="0" result="BackgroundImageFix"/>
<feColorMatrix in="SourceAlpha" type="matrix" values="0 0 0 0 0 0 0 0 0 0 0 0 0 0 0 0 0 0 127 0" result="hardAlpha"/>
<feOffset/>
<feGaussianBlur stdDeviation="1.64236"/>
<feComposite in2="hardAlpha" operator="out"/>
<feColorMatrix type="matrix" values="0 0 0 0 0.65438 0 0 0 0 0.65438 0 0 0 0 0.65438 0 0 0 1 0"/>
<feBlend mode="normal" in2="BackgroundImageFix" result="effect1_dropShadow_231_7"/>
<feBlend mode="normal" in="SourceGraphic" in2="effect1_dropShadow_231_7" result="shape"/>
<feGaussianBlur stdDeviation="0.615884" result="effect2_foregroundBlur_231_7"/>
</filter>
<linearGradient id="paint0_linear_231_7" x1="43.4553" y1="75.0685" x2="43.4553" y2="192.787" gradientUnits="userSpaceOnUse">
<stop stop-color="#16302C"/>
<stop offset="1" stop-color="#16302C"/>
</linearGradient>
<linearGradient id="paint1_linear_231_7" x1="99.1148" y1="44.1048" x2="133.151" y2="122.756" gradientUnits="userSpaceOnUse">
<stop stop-color="#16302C"/>
<stop offset="1" stop-color="#16302C"/>
</linearGradient>
<linearGradient id="paint2_linear_231_7" x1="102.04" y1="121.526" x2="193.007" y2="233.423" gradientUnits="userSpaceOnUse">
<stop stop-color="#16302C"/>
<stop offset="0.687849" stop-color="#171611" stop-opacity="0.388235"/>
</linearGradient>
<linearGradient id="paint3_linear_231_7" x1="91.6436" y1="245.141" x2="168.89" y2="142.161" gradientUnits="userSpaceOnUse">
<stop offset="0.384338" stop-color="#16302C"/>
<stop offset="1" stop-color="#1B1617"/>
</linearGradient>
</defs>
</svg>
