<?xml version="1.0" encoding="UTF-8"?>
<svg width="102px" height="102px" viewBox="0 0 102 102" version="1.1" xmlns="http://www.w3.org/2000/svg" xmlns:xlink="http://www.w3.org/1999/xlink">
    <title>contents/brand/rci/rci-rebrand</title>
    <g id="contents/brand/rci/rci-rebrand" stroke="none" stroke-width="1" fill="none" fill-rule="evenodd">
        <path d="M20.4644211,75.8841105 L13.022,75.8841105 L13.022,64.73975 L20.4644211,64.73975 C24.3117895,64.73975 27.0866667,66.3859535 27.0866667,70.3119302 C27.0866667,74.237907 24.3117895,75.8841105 20.4644211,75.8841105 Z M36.484386,69.9951453 C36.484386,61.3838663 30.9340351,56.5087326 21.0955088,56.5087326 L3.68810526,56.5087326 L3.68810526,100.83107 L13.022,100.83107 L13.022,83.9881744 L19.8810526,83.9881744 L28.6637895,100.83107 L39.1960351,100.83107 L28.9459298,82.1790872 C33.6695439,80.0160872 36.484386,75.4834884 36.484386,69.9951453 L36.484386,69.9951453 Z" id="Fill-1" fill="#000000" fill-rule="nonzero"></path>
        <path d="M62.6769123,64.0534826 C68.0369825,64.0534826 71.2532632,67.7261512 72.1992982,73.8043488 L81.7861053,73.8043488 C80.650386,62.8504186 73.4608772,55.569157 62.6769123,55.569157 C50.1881754,55.569157 42.9348421,65.0661163 42.9348421,78.6800814 C42.9348421,92.2940465 50.1881754,101.791006 62.6769123,101.791006 C73.4608772,101.791006 80.650386,94.5097442 81.7861053,83.5564128 L72.1992982,83.5564128 C71.2532632,89.6340116 68.0369825,93.3066802 62.6769123,93.3066802 C56.0534737,93.3066802 52.4590175,87.6716221 52.4590175,78.6800814 C52.4590175,69.6885407 56.0534737,64.0534826 62.6769123,64.0534826" id="Fill-2" fill="#000000" fill-rule="nonzero"></path>
        <polygon id="Fill-3" fill="#000000" fill-rule="nonzero" points="89.4146316 100.84125 98.7485263 100.84125 98.7485263 56.5189128 89.4146316 56.5189128"></polygon>
        <path d="M0,0 C5.66010526,22.8324651 26.215193,39.7526105 50.7101053,39.7526105 C75.2044211,39.7526105 95.7595088,22.8324651 101.419614,0 L0,0" id="Fill-4" fill="#FA5454" fill-rule="nonzero"></path>
    </g>
</svg>