<?xml version="1.0" encoding="utf-8"?>
<!-- Generator: Adobe Illustrator 24.3.0, SVG Export Plug-In . SVG Version: 6.00 Build 0)  -->
<svg version="1.1"
	 id="Layer_1" xmlns:cc="http://creativecommons.org/ns#" xmlns:dc="http://purl.org/dc/elements/1.1/" xmlns:inkscape="http://www.inkscape.org/namespaces/inkscape" xmlns:rdf="http://www.w3.org/1999/02/22-rdf-syntax-ns#" xmlns:sodipodi="http://sodipodi.sourceforge.net/DTD/sodipodi-0.dtd" xmlns:svg="http://www.w3.org/2000/svg"
	 xmlns="http://www.w3.org/2000/svg" xmlns:xlink="http://www.w3.org/1999/xlink" x="0px" y="0px" viewBox="0 0 100 98.9"
	 style="enable-background:new 0 0 100 98.9;" xml:space="preserve">
<style type="text/css">
	.st0{fill:#FFFFFF;}
	.st1{fill:none;stroke:#FFFFFF;stroke-width:0.25;stroke-miterlimit:10;}
</style>
<g transform="matrix(1.3333333,0,0,-1.3333333,0,99.999223)">
	<path d="M163.8,45.3L163.8,45.3L163.8,45.3C163.8,45.3,163.8,45.3,163.8,45.3z"/>
	<path d="M169.2,50C169.2,50,169.2,50,169.2,50C169.2,50,169.2,50,169.2,50L169.2,50z M169.2,50c-6.8-2.7-7.5-8.6-7.5-8.6
		c-1.4,3.9-15,2.8-16.1-0.2c-1.1,2.7-2.9,4.5-8.7,8.6c0.6-6.9,1.4-6,1.7-14c-0.3-1.4-0.4-2.8-0.5-4.1c-3.1,0.4-6.3,0.6-6.4,0.2
		c-0.1-0.5,3.5-1.4,6.4-2.1c0-0.1,0-0.2,0-0.3c-3.7,0.5-9.2,1.1-9.4,0.6c-0.2-0.8,8-2.5,9.6-2.8c0-0.1,0-0.2,0-0.3
		c-2.9,0.3-5.7,0.5-5.8,0.1c-0.1-0.5,3.3-1.4,6.2-2.1c0.7-2.9,2-5,3.7-5.8c3.3-1.6-2.4-24.3-2.4-24.3l34.2,0
		c1.2-0.2,6.6-0.1,11.2,6.8c2.7,5.3,1.4,14.5-1.3,16.6c-2.6,2.1-0.3-8.1-1.7-11.7c-1-2.4-3-4.2-5.2-5.4c0.3,12.8-9.3,20.8-9.3,20.8
		c1,0.2,1.8,1.5,2.3,3.2c2.7,0.7,5.7,1.5,5.6,1.9c-0.1,0.4-2.5,0.2-5.2-0.1c0,0.1,0,0.2,0,0.3c2.5,0.5,9.2,2,9,2.7
		c-0.1,0.5-5.3-0.1-9-0.5c0,0.1,0,0.3,0,0.4c2.9,0.7,6.2,1.6,6,2c-0.1,0.4-3.2,0.2-6.3-0.2c-0.2,1.1-0.6,2.2-1.1,3.2
		C168.9,34.9,168.5,44.9,169.2,50L169.2,50z M192.1,43.2c-2.9,0-6.1-4.3-6.1-4.3s-2.3,4.4-5.3,3.3c-3-1.1,1.2-10.7,4.2-11.7
		c3-1.1,12.3,8.7,9.2,11.9C193.5,43,192.8,43.2,192.1,43.2L192.1,43.2z M131.4,16.4c-2.6,0-4.5-4.9-4.5-4.9s-3.3,6.5-6.4,3.3
		c-3.2-3.2,4.5-11.2,7.5-10.2c3,1.1,7.2,10.7,4.2,11.7C131.9,16.4,131.7,16.4,131.4,16.4z"/>
</g>
<g>
	<g>
		<g>
			<g>
				<path class="st0" d="M57.4,51.8c-2.1,3.5-4.5,5.6-8.8,5.6c-5.4,0-9.8-4.4-9.8-9.8s4.4-9.8,9.8-9.8c3.1,0,5.8,0.6,8.3,2.4
					l0.1,4.7c-1.1-3-4.1-6.7-7.6-6.7c-4.9,0-7.6,5-7.6,9.4s2.8,9.4,7.6,9.4c3.4,0,6.3-2.7,7.5-5.6L57.4,51.8z"/>
			</g>
			<g>
				<path class="st0" d="M54.1,43H52L45,62.5h0.5l1.7-4.7l0.4-1l0.2-0.4l0.6-1.6l3.7-10.1l4.2,11.7l0.2,0.4l0.5,1.2l1.6,4.5h2.8
					L54.1,43z"/>
			</g>
		</g>
	</g>
	<circle class="st1" cx="50" cy="49.4" r="32"/>
	<circle class="st1" cx="50" cy="49.4" r="23.6"/>
	<g>
		<path class="st0" d="M35.6,23.9l0.1,0.2l-0.6,0.4l1.3,2.1l-0.2,0.1l-1.3-2.1L34.2,25l-0.1-0.2L35.6,23.9z"/>
		<path class="st0" d="M38.1,23.3c0.1,0,0.3,0.1,0.4,0.1c0.1,0.1,0.2,0.2,0.3,0.4l0.5,1.1l-0.2,0.1L38.6,24
			c-0.1-0.2-0.2-0.3-0.4-0.4c-0.2-0.1-0.3,0-0.5,0c-0.2,0.1-0.3,0.2-0.4,0.4c-0.1,0.2,0,0.4,0.1,0.6l0.5,1l-0.2,0.1l-1.2-2.6
			l0.2-0.1l0.5,1c0-0.1,0.1-0.3,0.1-0.4c0.1-0.1,0.2-0.2,0.4-0.3C37.8,23.4,38,23.3,38.1,23.3z"/>
		<path class="st0" d="M41.8,23.1l-1.7,0.6c0.1,0.1,0.1,0.3,0.2,0.3c0.1,0.1,0.2,0.1,0.3,0.2c0.1,0,0.3,0,0.4,0
			c0.2-0.1,0.3-0.1,0.4-0.3c0.1-0.1,0.1-0.3,0.1-0.4l0.3-0.1c0,0.2,0,0.4-0.1,0.6c-0.1,0.2-0.3,0.3-0.5,0.4
			c-0.2,0.1-0.4,0.1-0.5,0.1c-0.2,0-0.3-0.1-0.5-0.2c-0.1-0.1-0.2-0.3-0.3-0.5c-0.1-0.2-0.1-0.4-0.1-0.6s0.1-0.3,0.2-0.5
			c0.1-0.1,0.3-0.2,0.5-0.3c0.2-0.1,0.4-0.1,0.5-0.1c0.2,0,0.3,0.1,0.4,0.2c0.1,0.1,0.2,0.3,0.3,0.4C41.8,23,41.8,23,41.8,23.1z
			 M41.2,22.6c-0.1-0.1-0.2-0.1-0.3-0.1c-0.1,0-0.3,0-0.4,0c-0.2,0.1-0.3,0.2-0.4,0.4c-0.1,0.2-0.1,0.4,0,0.6l1.4-0.5
			C41.4,22.8,41.3,22.7,41.2,22.6z"/>
		<path class="st0" d="M45.9,22.5l-1.2,0.2l-0.1,0.7l-0.3,0l0.5-2.8l0.3-0.1l1.4,2.5l-0.3,0L45.9,22.5z M45.7,22.3L45,20.9l-0.3,1.5
			L45.7,22.3z"/>
		<path class="st0" d="M49,20.7l0.1,2.1l-0.3,0l0-0.4c-0.1,0.1-0.1,0.2-0.3,0.3c-0.1,0.1-0.3,0.1-0.4,0.1c-0.3,0-0.5,0-0.6-0.2
			c-0.2-0.1-0.3-0.4-0.3-0.7l-0.1-1.2l0.3,0l0.1,1.2c0,0.2,0.1,0.4,0.2,0.5c0.1,0.1,0.3,0.2,0.5,0.2c0.2,0,0.4-0.1,0.5-0.2
			c0.1-0.1,0.2-0.3,0.1-0.6l-0.1-1.1L49,20.7z"/>
		<path class="st0" d="M50.8,20.8c0.1-0.1,0.3-0.1,0.5-0.1l0,0.3l-0.1,0c-0.2,0-0.4,0-0.5,0.1c-0.1,0.1-0.2,0.3-0.2,0.5l0,1.2
			l-0.3,0l0.1-2.1l0.3,0l0,0.4C50.5,21,50.6,20.9,50.8,20.8z"/>
		<path class="st0" d="M54,22.2L52.2,22c0,0.2,0,0.3,0.1,0.4c0.1,0.1,0.1,0.2,0.2,0.3c0.1,0.1,0.2,0.1,0.4,0.1c0.2,0,0.3,0,0.5-0.1
			c0.1-0.1,0.2-0.2,0.3-0.3l0.3,0c-0.1,0.2-0.2,0.4-0.4,0.5c-0.2,0.1-0.4,0.2-0.7,0.1c-0.2,0-0.4-0.1-0.5-0.2
			c-0.1-0.1-0.3-0.2-0.3-0.4C52,22.2,52,22,52,21.8c0-0.2,0.1-0.4,0.2-0.6c0.1-0.2,0.2-0.3,0.4-0.3c0.2-0.1,0.4-0.1,0.6-0.1
			c0.2,0,0.4,0.1,0.5,0.2c0.1,0.1,0.2,0.2,0.3,0.4c0.1,0.2,0.1,0.3,0.1,0.5C54,22,54,22.1,54,22.2z M53.7,21.5
			c-0.1-0.1-0.1-0.2-0.2-0.3c-0.1-0.1-0.2-0.1-0.4-0.1c-0.2,0-0.4,0-0.5,0.1c-0.2,0.1-0.3,0.3-0.3,0.5l1.5,0.2
			C53.8,21.8,53.8,21.6,53.7,21.5z"/>
		<path class="st0" d="M55.6,23.2l1.1-1.7l0.3,0.1l-1.3,1.9l-0.3-0.1L55,21.1l0.3,0.1L55.6,23.2z"/>
		<path class="st0" d="M58.1,21.9l-0.6,2l-0.3-0.1l0.6-2L58.1,21.9z M58,21.4c0,0,0-0.1,0-0.2c0-0.1,0-0.1,0.1-0.1c0,0,0.1,0,0.2,0
			c0.1,0,0.1,0,0.1,0.1c0,0,0,0.1,0,0.2c0,0.1,0,0.1-0.1,0.1c0,0-0.1,0-0.2,0C58,21.5,58,21.4,58,21.4z"/>
		<path class="st0" d="M59.1,22.7c0.1-0.1,0.3-0.2,0.5-0.2c0.2,0,0.4,0,0.5,0.1c0.2,0.1,0.3,0.2,0.4,0.3c0.1,0.1,0.2,0.3,0.2,0.4
			l0.2-0.4l0.3,0.1l-0.8,2l-0.3-0.1l0.2-0.4c-0.1,0.1-0.3,0.2-0.4,0.2c-0.2,0-0.3,0-0.5-0.1c-0.2-0.1-0.3-0.2-0.4-0.3
			c-0.1-0.1-0.2-0.3-0.2-0.5c0-0.2,0-0.4,0.1-0.6C58.8,23,58.9,22.8,59.1,22.7z M60.5,23.4c0-0.1-0.1-0.3-0.2-0.4
			c-0.1-0.1-0.2-0.2-0.3-0.2c-0.1-0.1-0.3-0.1-0.4-0.1c-0.1,0-0.3,0.1-0.4,0.2c-0.1,0.1-0.2,0.2-0.3,0.4c-0.1,0.2-0.1,0.3-0.1,0.5
			c0,0.1,0.1,0.3,0.2,0.4c0.1,0.1,0.2,0.2,0.3,0.2c0.1,0.1,0.3,0.1,0.4,0c0.1,0,0.3-0.1,0.4-0.2c0.1-0.1,0.2-0.2,0.3-0.4
			C60.5,23.7,60.5,23.5,60.5,23.4z"/>
		<path class="st0" d="M62.9,26.2c-0.1-0.1-0.1-0.3-0.1-0.4c0-0.1,0-0.3,0.1-0.4l0.2,0.1c-0.1,0.1-0.1,0.2,0,0.4
			c0,0.1,0.1,0.3,0.3,0.4c0.2,0.1,0.3,0.1,0.4,0.1c0.1,0,0.2-0.1,0.3-0.2c0.1-0.1,0.1-0.2,0.1-0.3c0-0.1-0.1-0.2-0.1-0.2
			c-0.1-0.1-0.1-0.2-0.3-0.3c-0.1-0.1-0.2-0.2-0.3-0.3s-0.1-0.2-0.1-0.3c0-0.1,0-0.3,0.1-0.4c0.1-0.1,0.2-0.2,0.3-0.3
			c0.1-0.1,0.2-0.1,0.4-0.1c0.1,0,0.3,0.1,0.4,0.2c0.2,0.1,0.4,0.3,0.4,0.5c0.1,0.2,0.1,0.4,0,0.5L64.8,25c0-0.1,0-0.2,0-0.3
			c0-0.1-0.1-0.2-0.3-0.3c-0.1-0.1-0.3-0.1-0.4-0.1c-0.1,0-0.2,0.1-0.3,0.2c-0.1,0.1-0.1,0.2-0.1,0.3c0,0.1,0.1,0.2,0.1,0.3
			c0.1,0.1,0.1,0.2,0.3,0.3c0.1,0.1,0.2,0.2,0.3,0.3c0.1,0.1,0.1,0.2,0.1,0.3c0,0.1,0,0.3-0.1,0.4c-0.1,0.1-0.2,0.2-0.3,0.3
			c-0.1,0.1-0.2,0.1-0.4,0.1c-0.1,0-0.3-0.1-0.5-0.1C63.1,26.4,63,26.3,62.9,26.2z"/>
		<path class="st0" d="M66.2,26.1l-0.8,1.1c-0.1,0.1-0.1,0.2-0.1,0.3c0,0.1,0.1,0.1,0.2,0.2l0.2,0.1L65.6,28l-0.2-0.2
			c-0.2-0.1-0.2-0.2-0.3-0.4c0-0.1,0-0.3,0.1-0.4l0.8-1.1l-0.2-0.2l0.1-0.2l0.2,0.2l0.3-0.4l0.2,0.2l-0.3,0.4l0.5,0.3l-0.1,0.2
			L66.2,26.1z"/>
		<path class="st0" d="M67.3,27.3c0.2-0.1,0.3-0.1,0.5-0.1c0.2,0,0.3,0.1,0.5,0.2c0.2,0.1,0.3,0.3,0.3,0.4c0.1,0.2,0.1,0.3,0,0.5
			L69,28l0.2,0.2l-1.4,1.6l-0.2-0.2l0.3-0.4c-0.1,0.1-0.3,0.1-0.5,0.1c-0.2,0-0.3-0.1-0.5-0.2c-0.1-0.1-0.2-0.3-0.3-0.4
			c-0.1-0.2-0.1-0.3,0-0.5c0-0.2,0.1-0.4,0.3-0.5C67,27.4,67.2,27.3,67.3,27.3z M68.5,28.4c0-0.1,0-0.3,0-0.4c0-0.1-0.1-0.2-0.2-0.3
			c-0.1-0.1-0.2-0.2-0.4-0.2c-0.1,0-0.3,0-0.4,0c-0.1,0.1-0.3,0.1-0.4,0.3c-0.1,0.1-0.2,0.3-0.2,0.4c0,0.1,0,0.3,0,0.4
			c0,0.1,0.1,0.2,0.2,0.3c0.1,0.1,0.2,0.2,0.4,0.2c0.1,0,0.3,0,0.4,0c0.1-0.1,0.3-0.1,0.4-0.3S68.4,28.5,68.5,28.4z"/>
		<path class="st0" d="M71,30.4c0,0.2-0.1,0.4-0.3,0.6l-0.9,0.8l-0.2-0.2l0.9-0.8c0.2-0.2,0.3-0.3,0.3-0.5c0-0.2-0.1-0.3-0.2-0.5
			c-0.1-0.1-0.3-0.2-0.5-0.2c-0.2,0-0.4,0.1-0.5,0.3l-0.8,0.8l-0.2-0.2l1.5-1.4l0.2,0.2L70,29.5c0.1,0,0.3,0,0.4,0s0.3,0.1,0.4,0.2
			C70.9,29.9,71,30.1,71,30.4z"/>
		<path class="st0" d="M71.7,31.6c0.2,0,0.4,0,0.5,0.1c0.2,0.1,0.3,0.2,0.4,0.3c0.1,0.1,0.2,0.3,0.2,0.5c0,0.2,0,0.3-0.1,0.5l1-0.7
			l0.2,0.2l-2.3,1.7L71.4,34l0.4-0.3c-0.2,0-0.3,0-0.5,0c-0.2-0.1-0.3-0.2-0.4-0.3c-0.1-0.2-0.2-0.3-0.2-0.5c0-0.2,0-0.4,0.1-0.5
			c0.1-0.2,0.2-0.3,0.4-0.4C71.4,31.7,71.5,31.7,71.7,31.6z M72.6,33c0.1-0.1,0.1-0.3,0.1-0.4c0-0.1-0.1-0.3-0.2-0.4
			c-0.1-0.1-0.2-0.2-0.3-0.3c-0.1-0.1-0.3-0.1-0.4-0.1c-0.1,0-0.3,0.1-0.4,0.2c-0.1,0.1-0.2,0.2-0.3,0.4C71,32.6,71,32.7,71,32.8
			c0,0.1,0.1,0.3,0.2,0.4c0.1,0.1,0.2,0.2,0.3,0.3c0.1,0.1,0.3,0.1,0.4,0c0.1,0,0.3-0.1,0.4-0.2S72.5,33.1,72.6,33z"/>
		<path class="st0" d="M73.6,34.2c0.2,0,0.4,0,0.5,0.1c0.2,0.1,0.3,0.2,0.4,0.4c0.1,0.2,0.1,0.3,0.1,0.5c0,0.2-0.1,0.3-0.1,0.5
			l0.4-0.2l0.1,0.2l-1.8,1.1L73,36.5l0.4-0.2c-0.2,0-0.3,0-0.5-0.1c-0.2-0.1-0.3-0.2-0.4-0.4c-0.1-0.2-0.1-0.3-0.1-0.5
			c0-0.2,0.1-0.3,0.2-0.5c0.1-0.2,0.2-0.3,0.4-0.4C73.2,34.3,73.4,34.2,73.6,34.2z M74.3,35.7c0.1-0.1,0.1-0.3,0.1-0.4
			c0-0.1,0-0.3-0.1-0.4c-0.1-0.1-0.2-0.2-0.3-0.3c-0.1-0.1-0.2-0.1-0.4-0.1c-0.1,0-0.3,0.1-0.4,0.1c-0.1,0.1-0.3,0.2-0.3,0.3
			c-0.1,0.1-0.1,0.3-0.1,0.4c0,0.1,0,0.3,0.1,0.4c0.1,0.1,0.2,0.2,0.3,0.3c0.1,0.1,0.3,0.1,0.4,0.1c0.1,0,0.3-0.1,0.4-0.1
			C74.1,35.9,74.2,35.8,74.3,35.7z"/>
		<path class="st0" d="M75.7,37.3c0.1,0.1,0.2,0.2,0.3,0.4l-0.3,0.1l0-0.1c-0.1-0.2-0.2-0.3-0.3-0.4c-0.1-0.1-0.3,0-0.6,0.1L73.8,38
			l-0.1-0.2l1.9-0.9l0.1,0.2l-0.3,0.2C75.5,37.2,75.6,37.3,75.7,37.3z"/>
		<path class="st0" d="M75.9,38.8c0.2,0,0.3,0.1,0.5,0.2c0.1,0.1,0.2,0.3,0.3,0.4c0.1,0.2,0.1,0.3,0,0.5c0,0.2-0.1,0.3-0.2,0.4
			l1.1-0.4l0.1,0.3l-2.7,1L75,41l0.4-0.2c-0.2,0-0.3-0.1-0.4-0.2c-0.1-0.1-0.2-0.3-0.3-0.4c-0.1-0.2-0.1-0.4,0-0.5
			c0-0.2,0.1-0.3,0.2-0.5c0.1-0.1,0.3-0.2,0.5-0.3C75.5,38.8,75.7,38.8,75.9,38.8z M76.3,40.4c0.1-0.1,0.2-0.2,0.2-0.4
			c0-0.1,0-0.3,0-0.4c-0.1-0.1-0.1-0.3-0.2-0.3c-0.1-0.1-0.2-0.1-0.4-0.2c-0.1,0-0.3,0-0.5,0.1c-0.2,0.1-0.3,0.1-0.4,0.2
			c-0.1,0.1-0.2,0.2-0.2,0.4c0,0.1,0,0.3,0,0.4c0,0.1,0.1,0.2,0.2,0.3c0.1,0.1,0.2,0.1,0.4,0.2c0.1,0,0.3,0,0.5-0.1
			C76.1,40.6,76.2,40.5,76.3,40.4z"/>
		<path class="st0" d="M77.4,44.7l-0.2,0l-0.3-1.5l0.2,0L77.4,44.7z"/>
		<path class="st0" d="M78.9,50.7l-0.2,0l0-0.8l-2.5-0.1l0-0.3l2.5,0.1l0-0.8l0.2,0L78.9,50.7z"/>
		<path class="st0" d="M78,53.1c-0.1,0.1-0.2,0.2-0.3,0.3c-0.1,0.1-0.3,0.1-0.5,0l-1.2-0.1l0-0.3l1.2,0.1c0.2,0,0.4,0,0.5-0.1
			c0.1-0.1,0.2-0.2,0.2-0.4c0-0.2,0-0.4-0.1-0.5c-0.1-0.1-0.3-0.2-0.5-0.2l-1.1-0.1l0-0.3l2.8,0.3l0,0.3l-1.1-0.1
			c0.1,0.1,0.2,0.2,0.3,0.3c0.1,0.1,0.1,0.3,0.1,0.4C78.2,52.8,78.1,53,78,53.1z"/>
		<path class="st0" d="M76.3,56.3l0.4-1.7c-0.2,0-0.3,0-0.4,0c-0.1,0-0.2,0.1-0.3,0.2c-0.1,0.1-0.1,0.2-0.2,0.3c0,0.2,0,0.3,0,0.5
			c0.1,0.1,0.1,0.2,0.3,0.3L76,56.2c-0.2-0.1-0.3-0.2-0.4-0.4c-0.1-0.2-0.1-0.4,0-0.7c0-0.2,0.1-0.4,0.3-0.5
			c0.1-0.1,0.3-0.2,0.5-0.3c0.2-0.1,0.4-0.1,0.6,0c0.2,0,0.4,0.1,0.5,0.3c0.1,0.1,0.2,0.3,0.3,0.4c0,0.2,0.1,0.4,0,0.6
			c0,0.2-0.1,0.4-0.2,0.5c-0.1,0.1-0.3,0.2-0.4,0.3c-0.2,0-0.3,0-0.5,0C76.4,56.4,76.3,56.3,76.3,56.3z M76.9,56.1
			c0.1,0,0.2-0.1,0.3-0.2c0.1-0.1,0.1-0.2,0.2-0.3c0-0.2,0-0.4-0.1-0.5c-0.1-0.2-0.3-0.3-0.5-0.4l-0.3,1.4
			C76.7,56.2,76.8,56.2,76.9,56.1z"/>
		<path class="st0" d="M74.6,60.1l0.5-1.1l-0.5-0.5l0.1-0.3l2.1,1.9l-0.1,0.3l-2.8-0.1l0.1-0.3L74.6,60.1z M74.8,60.1l1.6,0.1
			l-1.1-1.1L74.8,60.1z"/>
		<path class="st0" d="M74.4,63.7l-1.9-1l0.1-0.2l0.3,0.2c-0.1-0.1-0.1-0.2-0.1-0.4c0-0.1,0-0.3,0.1-0.4c0.1-0.2,0.3-0.4,0.5-0.4
			c0.2-0.1,0.5,0,0.7,0.1l1.1,0.6l-0.1,0.2l-1.1-0.6c-0.2-0.1-0.4-0.1-0.5-0.1c-0.2,0-0.3,0.2-0.4,0.3c-0.1,0.2-0.1,0.4-0.1,0.5
			c0.1,0.2,0.2,0.3,0.4,0.4l1,0.6L74.4,63.7z"/>
		<path class="st0" d="M73.4,65.1c0,0.1-0.1,0.3-0.2,0.4L73,65.4l0-0.1c0.1-0.2,0.2-0.3,0.1-0.5c0-0.2-0.1-0.3-0.3-0.4l-1-0.7
			l0.2-0.2l1.8,1.2l-0.2,0.2l-0.3-0.2C73.3,64.8,73.4,65,73.4,65.1z"/>
		<path class="st0" d="M70.5,67.1l1.1-1.4c-0.1-0.1-0.3-0.2-0.4-0.2c-0.1,0-0.3,0-0.4,0.1c-0.1,0.1-0.2,0.1-0.3,0.2
			c-0.1,0.1-0.2,0.3-0.2,0.4c0,0.1,0,0.3,0.1,0.4l-0.2,0.2c-0.1-0.2-0.2-0.4-0.2-0.6c0-0.2,0.1-0.4,0.2-0.6c0.1-0.2,0.3-0.3,0.4-0.3
			c0.2-0.1,0.3-0.1,0.5,0c0.2,0,0.4,0.1,0.5,0.3c0.2,0.1,0.3,0.3,0.4,0.5c0.1,0.2,0.1,0.3,0.1,0.5c0,0.2-0.1,0.3-0.2,0.5
			c-0.1,0.2-0.3,0.3-0.4,0.3c-0.2,0.1-0.3,0.1-0.5,0c-0.2,0-0.3-0.1-0.5-0.2C70.6,67.2,70.5,67.1,70.5,67.1z M71.2,67.2
			c0.1,0,0.2,0,0.4-0.1c0.1-0.1,0.2-0.1,0.3-0.2c0.1-0.2,0.2-0.3,0.2-0.5c0-0.2-0.1-0.4-0.3-0.5L70.8,67
			C70.9,67.1,71.1,67.2,71.2,67.2z"/>
		<path class="st0" d="M68.8,67.9l0.8,1.8l-0.2,0.2l-0.9-2.1l0.2-0.2l2.1,0.9l-0.2,0.2L68.8,67.9z"/>
		<path class="st0" d="M68.5,70.7l-1.4-1.6l0.2-0.2l1.4,1.6L68.5,70.7z M69,70.8c0.1,0,0.1,0,0.1,0.1c0,0,0.1,0.1,0,0.1
			c0,0.1,0,0.1-0.1,0.1c0,0-0.1,0.1-0.1,0c-0.1,0-0.1,0-0.1-0.1c0,0-0.1-0.1-0.1-0.1c0-0.1,0-0.1,0.1-0.1
			C68.9,70.9,68.9,70.8,69,70.8z"/>
		<path class="st0" d="M67.3,71.1c0,0.2,0,0.4-0.1,0.5c-0.1,0.2-0.2,0.3-0.3,0.4c-0.2,0.1-0.3,0.2-0.5,0.2c-0.2,0-0.3,0-0.5-0.1
			l0.3,0.4L66,72.7L64.7,71l0.2-0.2l0.3,0.4c0-0.2,0-0.3,0-0.5c0.1-0.2,0.2-0.3,0.3-0.4c0.2-0.1,0.3-0.2,0.5-0.2
			c0.2,0,0.3,0,0.5,0.1c0.2,0.1,0.3,0.2,0.4,0.4S67.3,70.9,67.3,71.1z M65.9,71.9C66,72,66.2,72,66.3,72c0.1,0,0.3-0.1,0.4-0.2
			c0.1-0.1,0.2-0.2,0.3-0.3c0.1-0.1,0.1-0.3,0.1-0.4c0-0.1-0.1-0.3-0.2-0.4c-0.1-0.1-0.2-0.2-0.4-0.3c-0.1-0.1-0.3-0.1-0.4-0.1
			c-0.1,0-0.3,0.1-0.4,0.2c-0.1,0.1-0.2,0.2-0.3,0.3c-0.1,0.1-0.1,0.3-0.1,0.4c0,0.1,0.1,0.3,0.2,0.4C65.7,71.8,65.8,71.9,65.9,71.9
			z"/>
		<path class="st0" d="M62.3,72.5c0.1,0,0.3,0,0.4,0.1c0.1,0.1,0.2,0.2,0.3,0.3L62.7,73c-0.1-0.1-0.2-0.2-0.3-0.2
			c-0.1,0-0.3,0-0.5,0.1c-0.2,0.1-0.3,0.2-0.3,0.3c-0.1,0.1,0,0.3,0,0.4c0.1,0.1,0.1,0.2,0.2,0.2c0.1,0,0.2,0.1,0.3,0
			c0.1,0,0.2,0,0.4-0.1c0.2,0,0.3-0.1,0.4-0.1c0.1,0,0.2,0,0.3,0.1c0.1,0.1,0.2,0.2,0.3,0.3c0.1,0.1,0.1,0.3,0.1,0.4
			c0,0.1-0.1,0.3-0.2,0.4c-0.1,0.1-0.2,0.2-0.4,0.3c-0.2,0.1-0.4,0.2-0.6,0.1c-0.2,0-0.3-0.1-0.5-0.3l0.3-0.1
			c0.1,0.1,0.2,0.2,0.3,0.2c0.1,0,0.3,0,0.4-0.1c0.1-0.1,0.2-0.2,0.3-0.3c0.1-0.1,0.1-0.3,0-0.4c-0.1-0.1-0.1-0.2-0.2-0.2
			c-0.1,0-0.2,0-0.3,0s-0.2,0-0.4,0.1C62.3,74,62.1,74,62,74c-0.1,0-0.2,0-0.3-0.1c-0.1-0.1-0.2-0.2-0.3-0.3
			c-0.1-0.1-0.1-0.2-0.1-0.4c0-0.1,0.1-0.3,0.1-0.4c0.1-0.1,0.2-0.2,0.4-0.3C62,72.5,62.1,72.5,62.3,72.5z"/>
		<path class="st0" d="M60.6,75.3l-0.5-1.2c0-0.1-0.1-0.2-0.2-0.2s-0.2,0-0.3,0L59.4,74l-0.1-0.2l0.3-0.1c0.2-0.1,0.3-0.1,0.4,0
			c0.1,0,0.2,0.2,0.3,0.4l0.5,1.2l0.3-0.1l0.1,0.2l-0.3,0.1l0.2,0.5L60.9,76l-0.2-0.5l-0.5,0.2l-0.1-0.2L60.6,75.3z"/>
		<path class="st0" d="M59,75.6c0,0.2-0.1,0.3-0.2,0.5c-0.1,0.1-0.3,0.2-0.5,0.3c-0.2,0.1-0.4,0.1-0.5,0c-0.2,0-0.3-0.1-0.4-0.2
			l0.1,0.4l-0.3,0.1l-0.6-2l0.3-0.1L57,75c0-0.2,0.1-0.3,0.2-0.4c0.1-0.1,0.3-0.2,0.5-0.3c0.2-0.1,0.4-0.1,0.5,0
			c0.2,0,0.3,0.1,0.5,0.3c0.1,0.1,0.2,0.3,0.3,0.5C59,75.2,59,75.4,59,75.6z M57.4,76c0.1,0.1,0.2,0.2,0.4,0.2c0.1,0,0.3,0,0.4,0
			c0.1,0,0.3-0.1,0.4-0.2c0.1-0.1,0.2-0.2,0.2-0.4c0-0.1,0-0.3,0-0.5c-0.1-0.2-0.1-0.3-0.2-0.4s-0.2-0.2-0.4-0.2c-0.1,0-0.3,0-0.4,0
			c-0.1,0-0.3,0.1-0.4,0.2c-0.1,0.1-0.2,0.2-0.2,0.4c0,0.1,0,0.3,0,0.5C57.2,75.7,57.3,75.9,57.4,76z"/>
		<path class="st0" d="M54.4,77c-0.2-0.1-0.3-0.3-0.4-0.6l-0.2-1.2l0.3,0l0.2,1.2c0,0.2,0.1,0.4,0.3,0.5c0.1,0.1,0.3,0.1,0.5,0.1
			c0.2,0,0.3-0.1,0.4-0.3c0.1-0.1,0.1-0.3,0.1-0.6l-0.2-1.1l0.3,0l0.4,2.1l-0.3,0l-0.1-0.4c0,0.1-0.1,0.3-0.2,0.3
			c-0.1,0.1-0.2,0.2-0.4,0.2C54.8,77.2,54.6,77.2,54.4,77z"/>
		<path class="st0" d="M52.9,77c-0.1,0.2-0.2,0.3-0.3,0.4c-0.1,0.1-0.3,0.2-0.5,0.2c-0.2,0-0.4,0-0.5-0.1c-0.2-0.1-0.3-0.2-0.4-0.3
			l0.1,1.2l-0.3,0l-0.2-2.9l0.3,0l0,0.5c0.1-0.2,0.2-0.3,0.3-0.4c0.1-0.1,0.3-0.2,0.5-0.2c0.2,0,0.4,0,0.5,0.1
			c0.2,0.1,0.3,0.2,0.4,0.4C53,76,53,76.2,53,76.4C53.1,76.6,53,76.8,52.9,77z M51.3,77c0.1,0.1,0.2,0.2,0.3,0.3
			c0.1,0.1,0.3,0.1,0.4,0.1c0.1,0,0.3-0.1,0.4-0.1c0.1-0.1,0.2-0.2,0.3-0.3c0.1-0.1,0.1-0.3,0.1-0.5c0-0.2-0.1-0.3-0.1-0.4
			c-0.1-0.1-0.2-0.2-0.3-0.3c-0.1-0.1-0.3-0.1-0.4-0.1c-0.1,0-0.3,0.1-0.4,0.1c-0.1,0.1-0.2,0.2-0.3,0.3c-0.1,0.1-0.1,0.3-0.1,0.5
			C51.2,76.7,51.3,76.8,51.3,77z"/>
		<path class="st0" d="M49.8,77.1c-0.1,0.2-0.2,0.3-0.4,0.4c-0.2,0.1-0.3,0.1-0.5,0.1c-0.2,0-0.4-0.1-0.5-0.2
			c-0.1-0.1-0.2-0.2-0.3-0.4l0,0.5l-0.3,0l0.1-2.1l0.3,0l0,0.5c0.1-0.1,0.2-0.3,0.3-0.3c0.1-0.1,0.3-0.1,0.5-0.1
			c0.2,0,0.4,0.1,0.5,0.2c0.2,0.1,0.3,0.2,0.3,0.4c0.1,0.2,0.1,0.4,0.1,0.6S49.9,77,49.8,77.1z M48.2,76.9c0.1,0.1,0.2,0.2,0.3,0.3
			s0.2,0.1,0.4,0.1c0.1,0,0.3,0,0.4-0.1c0.1-0.1,0.2-0.2,0.3-0.3c0.1-0.1,0.1-0.3,0.1-0.5c0-0.2,0-0.3-0.1-0.5
			c-0.1-0.1-0.2-0.2-0.3-0.3c-0.1-0.1-0.2-0.1-0.4-0.1c-0.1,0-0.3,0-0.4,0.1c-0.1,0.1-0.2,0.2-0.3,0.3c-0.1,0.1-0.1,0.3-0.1,0.4
			C48.1,76.6,48.1,76.8,48.2,76.9z"/>
		<path class="st0" d="M46,77.2c-0.1,0.1-0.3,0.1-0.5,0l0-0.3l0.1,0c0.2,0,0.4,0,0.5-0.1c0.1-0.1,0.2-0.3,0.2-0.5l0.2-1.2l0.3,0
			l-0.3,2.1l-0.3,0l0-0.4C46.2,77.1,46.1,77.2,46,77.2z"/>
		<path class="st0" d="M44.7,76.6c-0.1,0.1-0.3,0.2-0.4,0.3c-0.2,0.1-0.3,0.1-0.5,0c-0.2,0-0.3-0.1-0.5-0.2S43,76.4,43,76.3
			l-0.3,1.2l-0.3-0.1l0.6-2.8l0.3,0.1l-0.1,0.5c0.1-0.1,0.2-0.2,0.4-0.3c0.2-0.1,0.3-0.1,0.5,0c0.2,0,0.3,0.1,0.5,0.2
			c0.1,0.1,0.2,0.3,0.3,0.5c0,0.2,0,0.4,0,0.6C44.9,76.3,44.8,76.5,44.7,76.6z M43.1,76.1c0,0.1,0.1,0.3,0.2,0.4
			c0.1,0.1,0.2,0.2,0.4,0.2c0.1,0,0.3,0,0.4,0c0.1,0,0.2-0.1,0.3-0.2c0.1-0.1,0.2-0.2,0.2-0.4c0-0.2,0-0.3,0-0.5
			c0-0.1-0.1-0.3-0.2-0.4c-0.1-0.1-0.2-0.2-0.4-0.2c-0.1,0-0.3,0-0.4,0c-0.1,0-0.2,0.1-0.3,0.2c-0.1,0.1-0.2,0.2-0.2,0.4
			C43.1,75.9,43.1,76,43.1,76.1z"/>
		<path class="st0" d="M38.9,74.8l0.1-0.2l1.4,0.6l-0.1,0.2L38.9,74.8z"/>
		<path class="st0" d="M33,72.8l0.1-0.2l0.6,0.4l1.4-2.1l0.2,0.2L34,73.2l0.6,0.4l-0.1,0.2L33,72.8z"/>
		<path class="st0" d="M31.5,70.7c-0.1-0.1-0.1-0.3,0-0.4c0-0.2,0.1-0.3,0.2-0.5l0.8-1l0.2,0.2L31.9,70c-0.1,0.2-0.2,0.3-0.2,0.5
			c0,0.2,0.1,0.3,0.2,0.4c0.2,0.1,0.3,0.2,0.5,0.2c0.2,0,0.3-0.1,0.5-0.3l0.7-0.9l0.2,0.2l-1.8,2.2l-0.2-0.2l0.7-0.9
			c-0.1,0.1-0.3,0.1-0.4,0c-0.1,0-0.3-0.1-0.4-0.2C31.6,71,31.5,70.8,31.5,70.7z"/>
		<path class="st0" d="M29.7,67.5l1.2,1.3c0.1-0.1,0.2-0.2,0.2-0.4c0-0.1,0-0.3,0-0.4c0-0.1-0.1-0.2-0.2-0.3
			c-0.1-0.1-0.3-0.2-0.4-0.2c-0.1,0-0.3,0-0.4,0.1l-0.2-0.2c0.2-0.1,0.4-0.1,0.6-0.1c0.2,0,0.4,0.1,0.6,0.3c0.1,0.1,0.2,0.3,0.3,0.5
			c0,0.2,0,0.4,0,0.5c-0.1,0.2-0.2,0.3-0.3,0.5c-0.2,0.2-0.3,0.3-0.5,0.3c-0.2,0.1-0.4,0.1-0.5,0c-0.2-0.1-0.3-0.1-0.5-0.3
			c-0.1-0.1-0.2-0.3-0.3-0.5c0-0.2,0-0.3,0-0.5c0-0.2,0.1-0.3,0.3-0.4C29.6,67.6,29.7,67.5,29.7,67.5z M29.5,68.2c0,0.1,0,0.2,0,0.4
			c0,0.1,0.1,0.2,0.2,0.3c0.1,0.1,0.3,0.2,0.5,0.2c0.2,0,0.4-0.1,0.6-0.2l-1-1.1C29.6,67.9,29.5,68,29.5,68.2z"/>
		<path class="st0" d="M27.4,64.1l0.7,1l0.7-0.2l0.2,0.2l-2.8,0.7L26,65.6l1.6-2.3l0.2,0.2L27.4,64.1z M27.3,64.2l-0.9,1.3l1.5-0.4
			L27.3,64.2z"/>
		<path class="st0" d="M24.5,62l1.9-1l0.1,0.2l-0.3,0.2c0.1,0,0.3,0,0.4,0.1c0.1,0.1,0.2,0.2,0.3,0.3C27,62,27,62.2,27,62.5
			c-0.1,0.2-0.2,0.4-0.5,0.5l-1.1,0.6l-0.1-0.2l1.1-0.6c0.2-0.1,0.3-0.2,0.4-0.4c0.1-0.2,0-0.3-0.1-0.5c-0.1-0.2-0.2-0.3-0.4-0.3
			c-0.2,0-0.4,0-0.6,0.1l-1,0.6L24.5,62z"/>
		<path class="st0" d="M23.8,60.3c-0.1-0.1-0.2-0.2-0.3-0.4l0.3-0.1l0,0.1c0.1,0.2,0.2,0.3,0.3,0.4c0.1,0.1,0.3,0.1,0.6,0l1.1-0.5
			l0.1,0.2L24,60.9l-0.1-0.2l0.3-0.1C24.1,60.5,24,60.4,23.8,60.3z"/>
		<path class="st0" d="M23.7,56.8l0.6,1.7c0.1-0.1,0.3-0.1,0.4-0.2c0.1-0.1,0.1-0.2,0.2-0.3c0-0.1,0-0.3,0-0.4
			c-0.1-0.2-0.1-0.3-0.3-0.4c-0.1-0.1-0.3-0.1-0.4-0.1L24,56.7c0.2,0,0.4,0,0.6,0.2c0.2,0.1,0.3,0.3,0.4,0.5c0.1,0.2,0.1,0.4,0,0.5
			c0,0.2-0.1,0.3-0.2,0.5c-0.1,0.1-0.3,0.2-0.5,0.3c-0.2,0.1-0.4,0.1-0.6,0.1c-0.2,0-0.3-0.1-0.5-0.2c-0.1-0.1-0.2-0.3-0.3-0.5
			c-0.1-0.2-0.1-0.4,0-0.5c0-0.2,0.1-0.3,0.2-0.4c0.1-0.1,0.3-0.2,0.4-0.3C23.6,56.8,23.7,56.8,23.7,56.8z M23.2,57.4
			c-0.1,0.1-0.1,0.2-0.2,0.3c0,0.1,0,0.3,0,0.4c0.1,0.2,0.2,0.3,0.3,0.4c0.2,0.1,0.4,0.1,0.6,0.1l-0.5-1.4
			C23.4,57.2,23.3,57.3,23.2,57.4z"/>
		<path class="st0" d="M24,55l-2-0.3l-0.1-0.3l2.2,0.4l0.1,0.3l-1.9,1.3l-0.1-0.3L24,55z"/>
		<path class="st0" d="M21.4,53.5c0,0-0.1,0.1-0.1,0.1c-0.1,0-0.1,0-0.1,0c0,0-0.1-0.1-0.1-0.1c0-0.1,0-0.1,0-0.1
			c0,0,0.1-0.1,0.1-0.1c0.1,0,0.1,0,0.2,0s0.1,0.1,0.1,0.1C21.4,53.5,21.4,53.5,21.4,53.5z M21.8,53.2l2.1-0.3l0,0.3l-2.1,0.3
			L21.8,53.2z"/>
		<path class="st0" d="M22.1,52c-0.2-0.1-0.3-0.2-0.4-0.3s-0.2-0.3-0.2-0.5c0-0.2,0-0.4,0.1-0.5c0.1-0.2,0.2-0.3,0.3-0.3l-0.5,0
			l0-0.3l2.1-0.1l0,0.3l-0.5,0c0.1,0.1,0.3,0.2,0.4,0.3c0.1,0.1,0.2,0.3,0.2,0.5c0,0.2,0,0.4-0.1,0.5c-0.1,0.2-0.2,0.3-0.4,0.4
			c-0.2,0.1-0.3,0.2-0.6,0.2C22.5,52.1,22.3,52.1,22.1,52z M22.1,50.4c-0.1,0.1-0.2,0.2-0.3,0.3c-0.1,0.1-0.1,0.3-0.1,0.4
			c0,0.1,0.1,0.3,0.1,0.4c0.1,0.1,0.2,0.2,0.3,0.3c0.1,0.1,0.3,0.1,0.5,0.1c0.2,0,0.3-0.1,0.4-0.1c0.1-0.1,0.2-0.2,0.3-0.3
			c0.1-0.1,0.1-0.3,0.1-0.4c0-0.1-0.1-0.3-0.1-0.4c-0.1-0.1-0.2-0.2-0.3-0.3c-0.1-0.1-0.3-0.1-0.5-0.1
			C22.4,50.2,22.2,50.3,22.1,50.4z"/>
		<path class="st0" d="M23.6,47c-0.1,0.1-0.2,0.2-0.3,0.3c-0.1,0.1-0.2,0.1-0.4,0.1l0-0.3c0.1,0,0.3,0,0.4-0.1
			c0.1-0.1,0.2-0.2,0.2-0.4c0-0.2,0-0.3-0.1-0.4c-0.1-0.1-0.2-0.2-0.3-0.2c-0.1,0-0.2,0-0.3,0.1c-0.1,0.1-0.1,0.1-0.2,0.2
			c0,0.1-0.1,0.2-0.1,0.4c-0.1,0.2-0.1,0.3-0.2,0.4c-0.1,0.1-0.1,0.2-0.2,0.2c-0.1,0.1-0.2,0.1-0.4,0.1c-0.1,0-0.3-0.1-0.4-0.1
			c-0.1-0.1-0.2-0.2-0.2-0.3c0-0.1-0.1-0.3,0-0.5c0-0.2,0.1-0.4,0.2-0.6c0.1-0.1,0.3-0.2,0.5-0.2l0,0.3c-0.1,0-0.2,0.1-0.3,0.2
			c-0.1,0.1-0.2,0.2-0.2,0.4c0,0.2,0,0.3,0.1,0.4c0.1,0.1,0.2,0.2,0.3,0.2c0.1,0,0.2,0,0.3-0.1c0.1-0.1,0.1-0.1,0.2-0.2
			c0-0.1,0.1-0.2,0.2-0.3c0.1-0.2,0.1-0.3,0.2-0.4c0.1-0.1,0.1-0.2,0.2-0.3c0.1-0.1,0.2-0.1,0.4-0.1c0.1,0,0.2,0.1,0.3,0.1
			c0.1,0.1,0.2,0.2,0.2,0.3c0.1,0.1,0.1,0.3,0.1,0.5C23.7,46.7,23.7,46.9,23.6,47z"/>
		<path class="st0" d="M22.2,44.1l1.3,0.2c0.1,0,0.2,0,0.3,0c0.1,0,0.1-0.1,0.1-0.2l0-0.2l0.2,0l-0.1,0.3c0,0.2-0.1,0.3-0.2,0.4
			c-0.1,0.1-0.3,0.1-0.5,0.1l-1.3-0.2l-0.1,0.3l-0.2,0l0.1-0.3l-0.5-0.1l0-0.3l0.5,0.1l0.1-0.6l0.2,0L22.2,44.1z"/>
		<path class="st0" d="M22.7,42.6c-0.1-0.1-0.2-0.3-0.3-0.4c0-0.2,0-0.4,0-0.5c0.1-0.2,0.1-0.3,0.3-0.5c0.1-0.1,0.3-0.2,0.4-0.2
			l-0.4-0.1l0.1-0.3l2,0.6l-0.1,0.3l-0.5-0.1c0.1,0.1,0.2,0.2,0.3,0.4s0.1,0.3,0,0.5c-0.1,0.2-0.1,0.3-0.3,0.5
			c-0.1,0.1-0.3,0.2-0.5,0.2c-0.2,0-0.4,0-0.6,0C23,42.8,22.9,42.7,22.7,42.6z M23.3,41.1c-0.1,0-0.3,0.1-0.4,0.2
			c-0.1,0.1-0.2,0.2-0.2,0.4c0,0.1,0,0.3,0,0.4c0,0.1,0.1,0.2,0.2,0.3c0.1,0.1,0.2,0.2,0.4,0.2c0.2,0,0.3,0.1,0.5,0
			c0.1,0,0.3-0.1,0.4-0.2c0.1-0.1,0.2-0.2,0.2-0.4c0-0.1,0-0.3,0-0.4c0-0.1-0.1-0.3-0.2-0.4c-0.1-0.1-0.2-0.2-0.4-0.2
			C23.6,41,23.4,41,23.3,41.1z"/>
		<path class="st0" d="M24,37.9c0.2-0.1,0.4-0.1,0.7,0l1.1,0.5l-0.1,0.2l-1.1-0.5c-0.2-0.1-0.4-0.1-0.6,0c-0.2,0.1-0.3,0.2-0.3,0.4
			c-0.1,0.2-0.1,0.4,0,0.5c0.1,0.2,0.2,0.3,0.5,0.4l1.1,0.4l-0.1,0.3l-2-0.8l0.1-0.3l0.3,0.1c-0.1-0.1-0.1-0.2-0.2-0.4
			c0-0.1,0-0.3,0.1-0.4C23.6,38.2,23.8,38,24,37.9z"/>
		<path class="st0" d="M24.8,36.7c-0.1-0.2-0.2-0.3-0.2-0.5c0-0.2,0-0.4,0.1-0.5c0.1-0.2,0.2-0.3,0.4-0.4s0.3-0.1,0.5-0.1l-1.1-0.6
			l0.1-0.2l2.5,1.4L27.1,36l-0.4-0.2c0.1,0.1,0.2,0.3,0.2,0.5c0,0.2,0,0.3-0.1,0.5c-0.1,0.2-0.2,0.3-0.4,0.4
			c-0.2,0.1-0.3,0.1-0.5,0.1c-0.2,0-0.4-0.1-0.6-0.2C25.1,37,25,36.9,24.8,36.7z M25.7,35.4c-0.1,0-0.3,0-0.4,0.1
			c-0.1,0.1-0.2,0.2-0.3,0.3c-0.1,0.1-0.1,0.3-0.1,0.4c0,0.1,0,0.3,0.1,0.4c0.1,0.1,0.2,0.2,0.4,0.3c0.2,0.1,0.3,0.1,0.4,0.1
			c0.1,0,0.3,0,0.4-0.1c0.1-0.1,0.2-0.2,0.3-0.3c0.1-0.1,0.1-0.3,0.1-0.4c0-0.1,0-0.3-0.1-0.4c-0.1-0.1-0.2-0.2-0.3-0.3
			C26,35.4,25.9,35.4,25.7,35.4z"/>
		<path class="st0" d="M26.4,33.9c-0.1-0.2-0.1-0.3-0.1-0.5c0-0.2,0.1-0.3,0.2-0.5c0.1-0.2,0.3-0.3,0.4-0.3c0.2-0.1,0.3-0.1,0.5-0.1
			L27,32.3l0.2-0.2l1.7,1.2l-0.2,0.2l-0.4-0.3c0.1,0.1,0.1,0.3,0.1,0.5c0,0.2-0.1,0.3-0.2,0.5c-0.1,0.2-0.2,0.3-0.4,0.3
			c-0.2,0.1-0.3,0.1-0.5,0.1c-0.2,0-0.4-0.1-0.5-0.2C26.7,34.3,26.5,34.1,26.4,33.9z M27.5,32.7c-0.1,0-0.3,0-0.4,0.1
			c-0.1,0.1-0.2,0.1-0.3,0.3c-0.1,0.1-0.1,0.3-0.1,0.4s0,0.3,0.1,0.4c0.1,0.1,0.2,0.2,0.3,0.3c0.1,0.1,0.3,0.2,0.4,0.2
			c0.1,0,0.3,0,0.4-0.1c0.1-0.1,0.2-0.1,0.3-0.3c0.1-0.1,0.1-0.2,0.1-0.4c0-0.1,0-0.3-0.1-0.4c-0.1-0.1-0.2-0.2-0.3-0.3
			C27.8,32.8,27.6,32.7,27.5,32.7z"/>
		<path class="st0" d="M28.3,30.7c0-0.1,0.1-0.3,0.2-0.4l0.2,0.2l0,0.1c-0.1,0.1-0.2,0.3-0.2,0.5c0,0.2,0.1,0.3,0.3,0.5l0.9,0.8
			l-0.2,0.2l-1.6-1.4l0.2-0.2l0.3,0.2C28.3,31,28.3,30.9,28.3,30.7z"/>
		<path class="st0" d="M29.6,29.9c-0.1-0.2-0.1-0.4,0-0.5c0-0.2,0.1-0.3,0.3-0.5c0.1-0.1,0.3-0.2,0.5-0.3c0.2,0,0.3,0,0.5,0L30,27.8
			l0.2-0.2l2,2L32,29.9l-0.3-0.3c0.1,0.1,0.1,0.3,0,0.5c0,0.2-0.1,0.3-0.3,0.5c-0.1,0.1-0.3,0.2-0.5,0.3c-0.2,0-0.3,0-0.5,0
			c-0.2-0.1-0.3-0.2-0.5-0.3C29.8,30.3,29.6,30.1,29.6,29.9z M30.8,28.9c-0.1,0-0.3,0-0.4,0c-0.1,0-0.3,0.1-0.4,0.2
			c-0.1,0.1-0.2,0.2-0.2,0.4c0,0.1,0,0.3,0,0.4c0,0.1,0.1,0.3,0.2,0.4c0.1,0.1,0.3,0.2,0.4,0.3c0.1,0,0.3,0.1,0.4,0
			c0.1,0,0.3-0.1,0.4-0.2c0.1-0.1,0.2-0.2,0.2-0.4c0-0.1,0-0.3,0-0.4c0-0.1-0.1-0.3-0.2-0.4C31.1,29,31,28.9,30.8,28.9z"/>
		<path class="st0" d="M33,27l0.1,0.2L32,28.1l-0.1-0.2L33,27z"/>
	</g>
</g>
</svg>
